<?xml version="1.0" encoding="UTF-8"?>
<svg id="Layer_2" data-name="Layer 2" xmlns="http://www.w3.org/2000/svg" viewBox="0 0 227.52 175.46">
  <defs>
    <style>
      .cls-1 {
        fill: #208b3a;
      }

      .cls-1, .cls-2, .cls-3, .cls-4 {
        stroke-width: 0px;
      }

      .cls-2 {
        fill: #ffb700;
      }

      .cls-3 {
        fill: #f80b09;
      }

      .cls-4 {
        fill: #001a6e;
      }
    </style>
  </defs>
  <g id="Layer_1-2" data-name="Layer 1">
    <g>
      <path class="cls-3" d="M158.33,7.41l9.76,9.76c2.77,2.77,2.77,7.25,0,10.02l-49.3,49.3c-2.77,2.77-7.25,2.77-10.02,0l-29.53-29.53c-2.77-2.77-2.77-7.25,0-10.02l9.76-9.76c2.77-2.77,7.25-2.77,10.02,0l9.75,9.75c2.77,2.77,7.25,2.77,10.02,0l29.53-29.53c2.77-2.77,7.25-2.77,10.02,0Z"/>
      <path class="cls-4" d="M21.85,2.08l80.65,80.65c2.77,2.77,2.77,7.25,0,10.02l-29.53,29.53c-2.77,2.77-7.25,2.77-10.02,0l-9.76-9.76c-2.77-2.77-2.77-7.25,0-10.02l9.76-9.76c2.77-2.77,2.77-7.25,0-10.02L2.08,21.85c-2.77-2.77-2.77-7.25,0-10.02L11.83,2.08c2.77-2.77,7.25-2.77,10.02,0Z"/>
      <path class="cls-2" d="M69.2,168.06l-9.76-9.76c-2.77-2.77-2.77-7.25,0-10.02l49.3-49.3c2.77-2.77,7.25-2.77,10.02,0l29.53,29.53c2.77,2.77,2.77,7.25,0,10.02l-9.76,9.76c-2.77,2.77-7.25,2.77-10.02,0l-9.75-9.75c-2.77-2.77-7.25-2.77-10.02,0l-29.53,29.53c-2.77,2.77-7.25,2.77-10.02,0Z"/>
      <path class="cls-1" d="M205.67,173.39l-80.65-80.65c-2.77-2.77-2.77-7.25,0-10.02l29.53-29.53c2.77-2.77,7.25-2.77,10.02,0l9.76,9.76c2.77,2.77,2.77,7.25,0,10.02l-9.76,9.76c-2.77,2.77-2.77,7.25,0,10.02l60.87,60.87c2.77,2.77,2.77,7.25,0,10.02l-9.76,9.76c-2.77,2.77-7.25,2.77-10.02,0Z"/>
    </g>
  </g>
</svg>